<mxfile host="app.diagrams.net" agent="Mozilla/5.0 (Windows NT 10.0; Win64; x64) AppleWebKit/537.36 (KHTML, like Gecko) Chrome/128.0.0.0 Safari/537.36" version="24.7.12">
  <diagram id="C5RBs43oDa-KdzZeNtuy" name="Page-1">
    <mxGraphModel dx="1434" dy="772" grid="1" gridSize="10" guides="1" tooltips="1" connect="1" arrows="1" fold="1" page="1" pageScale="1" pageWidth="827" pageHeight="1169" math="1" shadow="0">
      <root>
        <mxCell id="WIyWlLk6GJQsqaUBKTNV-0" />
        <mxCell id="WIyWlLk6GJQsqaUBKTNV-1" parent="WIyWlLk6GJQsqaUBKTNV-0" />
        <mxCell id="JV-vYrOSxjepAwK-vZPS-3" value="" style="edgeStyle=orthogonalEdgeStyle;rounded=0;orthogonalLoop=1;jettySize=auto;html=1;" edge="1" parent="WIyWlLk6GJQsqaUBKTNV-1" source="JV-vYrOSxjepAwK-vZPS-0" target="JV-vYrOSxjepAwK-vZPS-2">
          <mxGeometry relative="1" as="geometry" />
        </mxCell>
        <mxCell id="JV-vYrOSxjepAwK-vZPS-4" value="" style="edgeStyle=orthogonalEdgeStyle;rounded=0;orthogonalLoop=1;jettySize=auto;html=1;" edge="1" parent="WIyWlLk6GJQsqaUBKTNV-1" source="JV-vYrOSxjepAwK-vZPS-0" target="JV-vYrOSxjepAwK-vZPS-2">
          <mxGeometry relative="1" as="geometry" />
        </mxCell>
        <mxCell id="JV-vYrOSxjepAwK-vZPS-5" style="edgeStyle=orthogonalEdgeStyle;rounded=0;orthogonalLoop=1;jettySize=auto;html=1;exitX=0.5;exitY=1;exitDx=0;exitDy=0;entryX=0.5;entryY=0;entryDx=0;entryDy=0;" edge="1" parent="WIyWlLk6GJQsqaUBKTNV-1" source="JV-vYrOSxjepAwK-vZPS-0" target="JV-vYrOSxjepAwK-vZPS-1">
          <mxGeometry relative="1" as="geometry" />
        </mxCell>
        <mxCell id="JV-vYrOSxjepAwK-vZPS-0" value="开始" style="rounded=1;whiteSpace=wrap;html=1;fontFamily=仿宋;fontSize=20;" vertex="1" parent="WIyWlLk6GJQsqaUBKTNV-1">
          <mxGeometry x="294" y="130" width="120" height="40" as="geometry" />
        </mxCell>
        <mxCell id="JV-vYrOSxjepAwK-vZPS-1" value="原有光谱&lt;div style=&quot;font-size: 20px;&quot;&gt;背景数据&lt;/div&gt;" style="shape=parallelogram;perimeter=parallelogramPerimeter;whiteSpace=wrap;html=1;fixedSize=1;fontFamily=仿宋;fontSize=20;" vertex="1" parent="WIyWlLk6GJQsqaUBKTNV-1">
          <mxGeometry x="220" y="220" width="120" height="60" as="geometry" />
        </mxCell>
        <mxCell id="JV-vYrOSxjepAwK-vZPS-2" value="目标场景&lt;div style=&quot;font-size: 20px;&quot;&gt;背景数据&lt;/div&gt;" style="shape=parallelogram;perimeter=parallelogramPerimeter;whiteSpace=wrap;html=1;fixedSize=1;fontFamily=仿宋;fontSize=20;" vertex="1" parent="WIyWlLk6GJQsqaUBKTNV-1">
          <mxGeometry x="360" y="220" width="120" height="60" as="geometry" />
        </mxCell>
        <mxCell id="JV-vYrOSxjepAwK-vZPS-6" value="&lt;font style=&quot;font-size: 16px;&quot; face=&quot;仿宋&quot;&gt;去除主成分数&lt;/font&gt;&lt;div&gt;&lt;font style=&quot;font-size: 16px;&quot; face=&quot;仿宋&quot;&gt;（超参数）&lt;/font&gt;&lt;/div&gt;" style="shape=parallelogram;perimeter=parallelogramPerimeter;whiteSpace=wrap;html=1;fixedSize=1;" vertex="1" parent="WIyWlLk6GJQsqaUBKTNV-1">
          <mxGeometry x="80" y="310" width="130" height="60" as="geometry" />
        </mxCell>
        <mxCell id="JV-vYrOSxjepAwK-vZPS-7" value="&lt;span style=&quot;color: rgb(0, 0, 0); font-family: 仿宋; font-size: 18px; font-style: normal; font-variant-ligatures: normal; font-variant-caps: normal; font-weight: 400; letter-spacing: normal; orphans: 2; text-align: center; text-indent: 0px; text-transform: none; widows: 2; word-spacing: 0px; -webkit-text-stroke-width: 0px; white-space: normal; background-color: rgb(251, 251, 251); text-decoration-thickness: initial; text-decoration-style: initial; text-decoration-color: initial; float: none; display: inline !important;&quot;&gt;$$p$$&lt;/span&gt;" style="text;whiteSpace=wrap;html=1;fontSize=18;" vertex="1" parent="WIyWlLk6GJQsqaUBKTNV-1">
          <mxGeometry x="50" y="300" width="30" height="50" as="geometry" />
        </mxCell>
        <mxCell id="JV-vYrOSxjepAwK-vZPS-8" value="数据合并" style="rounded=0;whiteSpace=wrap;html=1;fontSize=20;fontFamily=仿宋;" vertex="1" parent="WIyWlLk6GJQsqaUBKTNV-1">
          <mxGeometry x="290" y="310" width="120" height="60" as="geometry" />
        </mxCell>
        <mxCell id="JV-vYrOSxjepAwK-vZPS-9" value="获取光谱维度" style="rounded=0;whiteSpace=wrap;html=1;fontSize=20;fontFamily=仿宋;" vertex="1" parent="WIyWlLk6GJQsqaUBKTNV-1">
          <mxGeometry x="290" y="400" width="120" height="60" as="geometry" />
        </mxCell>
        <mxCell id="JV-vYrOSxjepAwK-vZPS-11" value="&lt;font face=&quot;仿宋&quot;&gt;&lt;span style=&quot;font-size: 16px;&quot;&gt;新数据输入&lt;/span&gt;&lt;/font&gt;" style="shape=parallelogram;perimeter=parallelogramPerimeter;whiteSpace=wrap;html=1;fixedSize=1;" vertex="1" parent="WIyWlLk6GJQsqaUBKTNV-1">
          <mxGeometry x="70" y="585" width="130" height="60" as="geometry" />
        </mxCell>
        <mxCell id="JV-vYrOSxjepAwK-vZPS-12" value="" style="rhombus;whiteSpace=wrap;html=1;" vertex="1" parent="WIyWlLk6GJQsqaUBKTNV-1">
          <mxGeometry x="277" y="525" width="146" height="60" as="geometry" />
        </mxCell>
      </root>
    </mxGraphModel>
  </diagram>
</mxfile>
